<?xml version="1.0" encoding="UTF-8"?>
<svg id="Layer_2" data-name="Layer 2" xmlns="http://www.w3.org/2000/svg" viewBox="0 0 123.61 98.39">
  <defs>
    <style>
      .cls-1 {
        fill: none;
        isolation: isolate;
      }
    </style>
  </defs>
  <g id="Pantalla_3" data-name="Pantalla 3">
    <g id="BankAccountExpanded">
      <path d="m109.46,47.7H14.16c-4.89,0-8.86-3.56-8.86-7.93v-15.3c0-3.1,2.43-6.28,5.66-7.4L58.6.49c1.86-.65,4.56-.65,6.42,0l47.65,16.59c3.22,1.12,5.66,4.3,5.66,7.4v15.3c0,4.37-3.98,7.93-8.86,7.93ZM61.81,6.65c-.28,0-.57.02-.72.07L13.45,23.3c-.49.17-1,.87-1.02,1.17v15.29c0,.68.81,1.28,1.73,1.28h95.3c.92,0,1.73-.6,1.73-1.28v-15.3c-.02-.3-.53-1-1.02-1.17L62.53,6.72c-.16-.05-.44-.07-.72-.07Zm.71.07h0s0,0,0,0h0Z"/>
      <path d="m114.75,98.39H8.86c-1.97,0-3.57-1.49-3.57-3.33v-13.82c0-4.37,3.98-7.93,8.86-7.93h95.3c4.89,0,8.86,3.56,8.86,7.93v13.82c0,1.84-1.6,3.33-3.57,3.33Zm-102.32-6.65h98.75v-10.5c0-.68-.81-1.28-1.73-1.28H14.16c-.92,0-1.72.6-1.72,1.28v10.5Z"/>
      <g class="cls-1">
        <path d="m19.45,79.96c-1.97,0-3.57-1.49-3.57-3.33v-32.25c0-1.84,1.6-3.33,3.57-3.33s3.57,1.49,3.57,3.33v32.25c0,1.84-1.6,3.33-3.57,3.33Z"/>
      </g>
      <g class="cls-1">
        <path d="m40.63,79.96c-1.97,0-3.57-1.49-3.57-3.33v-32.25c0-1.84,1.6-3.33,3.57-3.33s3.57,1.49,3.57,3.33v32.25c0,1.84-1.6,3.33-3.57,3.33Z"/>
      </g>
      <g class="cls-1">
        <path d="m61.81,79.96c-1.97,0-3.57-1.49-3.57-3.33v-32.25c0-1.84,1.6-3.33,3.57-3.33s3.57,1.49,3.57,3.33v32.25c0,1.84-1.6,3.33-3.57,3.33Z"/>
      </g>
      <g class="cls-1">
        <path d="m82.98,79.96c-1.97,0-3.57-1.49-3.57-3.33v-32.25c0-1.84,1.6-3.33,3.57-3.33s3.57,1.49,3.57,3.33v32.25c0,1.84-1.6,3.33-3.57,3.33Z"/>
      </g>
      <g class="cls-1">
        <path d="m104.16,79.96c-1.97,0-3.57-1.49-3.57-3.33v-32.25c0-1.84,1.6-3.33,3.57-3.33s3.57,1.49,3.57,3.33v32.25c0,1.84-1.6,3.33-3.57,3.33Z"/>
      </g>
      <path d="m120.04,98.39H3.57c-1.97,0-3.57-1.49-3.57-3.33s1.6-3.33,3.57-3.33h116.47c1.97,0,3.57,1.49,3.57,3.33s-1.6,3.33-3.57,3.33Z"/>
      <g class="cls-1">
        <path d="m61.81,36.18c-6.35,0-11.51-4.59-11.51-10.24s5.16-10.24,11.51-10.24,11.51,4.59,11.51,10.24-5.16,10.24-11.51,10.24Zm0-13.82c-2.41,0-4.37,1.61-4.37,3.59s1.96,3.59,4.37,3.59,4.37-1.61,4.37-3.59-1.96-3.59-4.37-3.59Z"/>
      </g>
    </g>
  </g>
</svg>