<?xml version="1.0" encoding="UTF-8"?>
<svg id="Layer_2" data-name="Layer 2" xmlns="http://www.w3.org/2000/svg" viewBox="0 0 119.25 88.74">
  <g id="Pantalla_3" data-name="Pantalla 3">
    <g id="CreditCardExpanded">
      <path d="m95.86,88.74H23.39c-7.48,0-11.23,0-14.57-1.59-3.02-1.44-5.44-3.71-7.01-6.57-1.81-3.32-1.81-7.13-1.81-14.06V22.22c0-6.93,0-10.74,1.81-14.06,1.56-2.86,3.99-5.13,7.01-6.57,3.34-1.59,7.09-1.59,14.57-1.59h72.47c7.48,0,11.23,0,14.57,1.59,3.02,1.44,5.44,3.71,7.01,6.57,1.81,3.32,1.81,7.13,1.81,14.06v44.3c0,6.93,0,10.74-1.81,14.06-1.56,2.86-3.99,5.13-7.01,6.57-3.34,1.59-7.09,1.59-14.57,1.59ZM6.8,30.45v36.06c0,5.7,0,8.84.91,10.51.84,1.53,2.23,2.82,3.91,3.62,2,.95,5.47.95,11.77.95h72.47c6.3,0,9.76,0,11.77-.95,1.69-.8,3.08-2.09,3.91-3.62.91-1.67.91-4.81.91-10.51V30.45H6.8Zm0-7.14h105.65v-1.09c0-5.7,0-8.84-.91-10.51-.84-1.53-2.23-2.82-3.91-3.62-2-.95-5.47-.95-11.77-.95H23.39c-6.3,0-9.76,0-11.77.95-1.69.8-3.08,2.09-3.91,3.62-.91,1.67-.91,4.81-.91,10.51v1.09Zm34.08,42.11h-12.49c-1.88,0-3.4-1.6-3.4-3.57s1.52-3.57,3.4-3.57h12.49c1.88,0,3.4,1.6,3.4,3.57s-1.52,3.57-3.4,3.57Z"/>
    </g>
  </g>
</svg>