<?xml version="1.0" encoding="UTF-8"?>
<svg id="Layer_2" data-name="Layer 2" xmlns="http://www.w3.org/2000/svg" viewBox="0 0 292.32 107.31">
  <defs>
    <style>
      .cls-1 {
        fill: #ec6a0b;
      }

      .cls-2 {
        fill: #c85217;
        opacity: .3;
      }

      .cls-3 {
        fill: #85bd4b;
      }

      .cls-4 {
        fill: #ec6a0e;
      }

      .cls-5 {
        fill: #025c2b;
      }

      .cls-6 {
        fill: none;
      }

      .cls-7 {
        fill: #57af39;
      }
    </style>
  </defs>
  <g id="Pantalla_5" data-name="Pantalla 5">
    <g id="GrupoLogoColor">
      <g>
        <path class="cls-5" d="m135.77,34.87c-1.35-3.3-6.83-2.53-6.83.69v8.43c0,3.85,7.18,3.82,7.18,0v-.9h-3.92v-5.2h9.89v6.1c0,5.65-4.72,8.5-9.64,8.5s-9.71-2.84-9.71-8.5v-8.43c0-5.55,4.86-8.32,9.71-8.32,3.19,0,6.83,1.32,8.53,5.24l-5.2,2.39Z"/>
        <path class="cls-5" d="m152.36,44.34h-1.11v7.81h-6.28v-24.56h9.82c5.07,0,8.98,2.33,9.12,8.08,0,4.54-1.84,7.11-4.82,8.05l6.7,8.43h-7.74l-5.69-7.81Zm2.53-5.34c3.92,0,3.92-5.62,0-5.62h-3.64v5.62h3.64Z"/>
        <path class="cls-5" d="m173.34,43.92c0,3.95,7.01,3.95,7.04,0v-16.34h6.28v16.34c-.03,11.52-19.63,11.52-19.6,0v-16.34h6.28v16.34Z"/>
        <path class="cls-5" d="m190.34,27.59h9.82c6,0,8.98,4.34,8.98,8.67s-3.02,8.71-8.95,8.71h-3.64v7.18h-6.21v-24.56Zm9.82,11.86c3.75.03,3.75-6.11,0-6.07h-3.61v6.07h3.61Z"/>
        <path class="cls-5" d="m211.19,35.67c0-5.65,5.07-8.43,10.16-8.43s10.2,2.81,10.2,8.43v8.4c0,5.62-5.06,8.43-10.16,8.43s-10.2-2.81-10.2-8.43v-8.4Zm6.21,8.4c0,1.8,2.01,2.67,3.99,2.67s3.96-.9,3.96-2.67v-8.4c0-1.91-2.05-2.77-4.06-2.77s-3.88.97-3.88,2.77v8.4Z"/>
        <polygon class="cls-5" points="130.19 65.81 140.14 65.81 139.38 71.32 129.43 71.32 128.91 75 139.73 75 138.93 80.86 121.83 80.86 125.26 56.3 142.36 56.3 141.53 62.16 130.71 62.16 130.19 65.81"/>
        <polygon class="cls-5" points="145.66 56.3 151.56 56.3 156.03 66.78 157.42 71.71 157.56 71.67 157.49 67.44 159.05 56.3 165.23 56.3 161.79 80.86 155.51 80.86 151.32 71.18 149.86 66.26 149.72 66.29 149.79 71.05 148.44 80.86 142.23 80.86 145.66 56.3"/>
        <polygon class="cls-5" points="179.69 61.96 177.09 80.86 170.81 80.86 173.42 61.96 166.79 61.96 167.62 56.27 187.15 56.27 186.32 61.96 179.69 61.96"/>
        <path class="cls-5" d="m194.58,73.06h-1.11l-1.08,7.81h-6.28l3.43-24.56h9.82c5.07,0,8.67,2.71,7.98,8.46-.63,4.54-2.57,6.07-5.93,7.67l5.9,8.43h-7.74l-5-7.81Zm3.3-5.34c1.91,0,3.02-1.42,3.19-2.84.17-1.49-.56-2.77-2.39-2.77h-3.64l-.8,5.62h3.64Z"/>
        <polygon class="cls-5" points="216.78 65.81 226.73 65.81 225.97 71.32 216.02 71.32 215.5 75 226.32 75 225.52 80.86 208.42 80.86 211.85 56.3 228.95 56.3 228.12 62.16 217.3 62.16 216.78 65.81"/>
        <path class="cls-5" d="m243.67,63.59c-.38-1.46-1.7-2.12-3.09-2.12-1.73,0-3.57,1.04-3.82,2.81l-1.18,8.43c-.24,1.87,1.35,2.81,3.19,2.81s3.75-.94,3.99-2.81l.14-1.04h-3.92l.69-5.06h9.89l-.83,6.1c-.8,5.65-5.97,8.5-10.89,8.5s-9.26-2.84-8.46-8.5l1.18-8.43c.8-5.73,6-8.33,10.86-8.33,3.19,0,6.66,1.32,7.81,5.24l-5.55,2.39Z"/>
        <path class="cls-5" d="m270.79,80.86h-6.66l-.94-4.93h-6.56l-2.18,4.93h-6.66l12-24.56h5.65l5.34,24.56Zm-8.29-10.44l-.73-7.18h-.24l-2.71,7.18h3.68Z"/>
        <path class="cls-5" d="m275.62,73.09c1.08,1.56,3.12,2.36,4.96,2.36,1.66,0,3.12-.59,3.36-1.87.28-1.53-1.87-2.19-3.85-2.47-3.85-.62-7.32-3.71-6.45-8.36.94-5.03,5.38-6.8,9.89-6.8,2.98,0,5.76.83,7.87,3.92l-4.51,3.12c-1.04-1.18-2.67-1.73-4.09-1.77-1.56-.03-2.88.56-3.02,1.8-.17,1.42,1.07,2.05,2.95,2.46,4.27.8,8.43,2.43,7.28,8.53-.9,4.79-5.06,7.18-10.37,7.18-2.95,0-6.59-1.49-8.46-4.44l4.44-3.68Z"/>
        <path class="cls-1" d="m129.83,100.54h-3.47l-2.2-7.83h-.06c-.15,1.48-.29,2.54-.44,3.19l-.98,4.65h-2.65l2.36-11.14h3.47l2.18,7.49h.07c.15-1.2.29-2.14.44-2.83l1-4.67h2.65l-2.35,11.14Z"/>
        <path class="cls-1" d="m138.78,89.22c1.32,0,2.35.38,3.08,1.13.73.76,1.1,1.81,1.1,3.16s-.25,2.59-.76,3.71c-.51,1.12-1.2,1.98-2.09,2.58-.89.6-1.92.9-3.09.9-1.37,0-2.42-.38-3.17-1.14-.74-.76-1.12-1.81-1.12-3.16s.26-2.58.78-3.71c.52-1.13,1.24-1.99,2.14-2.58.9-.59,1.94-.89,3.12-.89m1.17,4.32c0-.58-.12-1.03-.37-1.36-.24-.33-.6-.49-1.06-.49-.5,0-.97.21-1.39.64-.42.43-.76,1.01-1.01,1.76-.25.75-.38,1.51-.38,2.3,0,1.23.51,1.85,1.52,1.85.48,0,.93-.21,1.35-.63.41-.42.74-.99.98-1.71.24-.72.35-1.5.35-2.35"/>
        <path class="cls-1" d="m150.8,97.11c0,1.13-.37,2.01-1.12,2.63-.75.63-1.79.94-3.12.94-.56,0-1.09-.06-1.59-.19-.5-.12-.93-.31-1.29-.54v-2.67c.43.27.92.49,1.47.68.55.18,1.05.27,1.5.27.38,0,.66-.08.85-.23.19-.16.29-.38.29-.67,0-.14-.03-.27-.09-.38-.06-.12-.15-.24-.26-.36-.11-.12-.41-.38-.9-.79-.6-.48-1.03-.97-1.3-1.46-.27-.5-.4-1.04-.4-1.64,0-.67.17-1.26.5-1.8.33-.53.8-.94,1.41-1.24.61-.29,1.29-.44,2.04-.44,1.21,0,2.31.27,3.28.81l-1.03,2.26c-.87-.45-1.61-.67-2.22-.67-.33,0-.58.07-.75.21-.18.14-.26.35-.26.63,0,.25.08.48.26.7.17.22.49.51.97.87.6.44,1.05.91,1.33,1.39.29.49.44,1.05.44,1.68"/>
        <path class="cls-1" d="m160.44,100.54v-7.99h-.06c-.34,2.12-.56,3.42-.66,3.9l-.86,4.09h-2.65l2.36-11.14h3.95v7.91h.06l3.64-7.91h4.01l-2.39,11.14h-2.67l.89-4.18c.25-1.16.53-2.27.82-3.32l.11-.49h-.06l-3.67,7.99h-2.82Z"/>
        <path class="cls-1" d="m181.01,89.39l-1.52,7.1c-.3,1.43-.87,2.48-1.72,3.17-.84.68-1.99,1.02-3.44,1.02-.68,0-1.28-.14-1.8-.42-.52-.28-.92-.67-1.2-1.18-.28-.5-.42-1.06-.42-1.68,0-.33.03-.65.09-.98l1.52-7.03h2.98l-1.49,6.96c-.07.35-.11.64-.11.88,0,.64.31.97.92.97.48,0,.85-.16,1.12-.49.27-.33.48-.83.62-1.51l1.46-6.81h2.98Z"/>
        <polygon class="cls-1" points="187.67 100.54 181.05 100.54 183.4 89.39 190.02 89.39 189.53 91.81 185.89 91.81 185.53 93.56 188.92 93.56 188.37 95.98 184.98 95.98 184.55 98.08 188.18 98.08 187.67 100.54"/>
        <path class="cls-1" d="m197.36,89.39h3.16l-5.53,11.14h-3.32l-.79-11.14h2.91l.21,6.11v.39c0,.73-.04,1.38-.12,1.95h.06c.07-.32.18-.73.34-1.2.15-.48.3-.85.42-1.11l2.67-6.13Z"/>
        <polygon class="cls-1" points="206.02 100.54 199.4 100.54 201.76 89.39 208.37 89.39 207.88 91.81 204.24 91.81 203.89 93.56 207.27 93.56 206.72 95.98 203.34 95.98 202.9 98.08 206.54 98.08 206.02 100.54"/>
        <polygon class="cls-1" points="218.85 100.54 212.23 100.54 214.59 89.39 221.2 89.39 220.71 91.81 217.07 91.81 216.71 93.56 220.1 93.56 219.55 95.98 216.16 95.98 215.73 98.08 219.36 98.08 218.85 100.54"/>
        <polygon class="cls-1" points="221 100.54 223.36 89.39 226.34 89.39 224.5 98.11 228.14 98.11 227.62 100.54 221 100.54"/>
        <polygon class="cls-1" points="236.26 100.54 233.28 100.54 235.64 89.39 242.21 89.39 241.7 91.81 238.11 91.81 237.66 93.94 240.99 93.94 240.46 96.37 237.12 96.37 236.26 100.54"/>
        <path class="cls-1" d="m252.64,89.39l-1.52,7.1c-.3,1.43-.87,2.48-1.72,3.17-.84.68-1.99,1.02-3.44,1.02-.68,0-1.28-.14-1.8-.42s-.92-.67-1.2-1.18c-.28-.5-.42-1.06-.42-1.68,0-.33.03-.65.09-.98l1.52-7.03h2.98l-1.49,6.96c-.07.35-.11.64-.11.88,0,.64.31.97.92.97.48,0,.85-.16,1.12-.49.27-.33.48-.83.62-1.51l1.46-6.81h2.98Z"/>
        <polygon class="cls-1" points="257.04 100.54 254.06 100.54 255.86 91.85 253.45 91.85 253.97 89.39 261.81 89.39 261.27 91.85 258.85 91.85 257.04 100.54"/>
        <path class="cls-1" d="m271.63,89.39l-1.52,7.1c-.3,1.43-.87,2.48-1.72,3.17-.84.68-1.99,1.02-3.44,1.02-.68,0-1.28-.14-1.8-.42s-.92-.67-1.2-1.18c-.28-.5-.42-1.06-.42-1.68,0-.33.03-.65.09-.98l1.52-7.03h2.98l-1.49,6.96c-.07.35-.11.64-.11.88,0,.64.31.97.92.97.48,0,.85-.16,1.12-.49.27-.33.48-.83.62-1.51l1.46-6.81h2.98Z"/>
        <path class="cls-1" d="m275.52,96.48l-.86,4.05h-2.98l2.35-11.14h2.95c1.28,0,2.26.25,2.94.76s1.02,1.27,1.02,2.29c0,.79-.18,1.48-.54,2.07-.36.59-.9,1.04-1.61,1.35l1.71,3.93.31.73h-3.25l-1.48-4.05h-.56Zm.48-2.26h.39c.48,0,.87-.14,1.15-.42.28-.28.43-.66.43-1.16,0-.31-.09-.56-.26-.72-.18-.17-.43-.25-.77-.25h-.4l-.53,2.55Z"/>
        <path class="cls-1" d="m288.14,89.22c1.32,0,2.35.38,3.08,1.13.73.76,1.1,1.81,1.1,3.16s-.25,2.59-.76,3.71c-.51,1.12-1.2,1.98-2.09,2.58-.89.6-1.92.9-3.09.9-1.37,0-2.42-.38-3.17-1.14-.74-.76-1.12-1.81-1.12-3.16s.26-2.58.78-3.71c.52-1.13,1.24-1.99,2.14-2.58.9-.59,1.94-.89,3.12-.89m1.17,4.32c0-.58-.12-1.03-.37-1.36-.24-.33-.6-.49-1.06-.49-.5,0-.97.21-1.39.64-.42.43-.76,1.01-1.01,1.76-.25.75-.38,1.51-.38,2.3,0,1.23.51,1.85,1.52,1.85.48,0,.93-.21,1.35-.63.41-.42.74-.99.98-1.71.24-.72.35-1.5.35-2.35"/>
      </g>
      <path class="cls-6" d="m38.58,6.81c-6.29,2.72-11.83,6.48-16.46,11.17-4.62,4.7-8.35,10.27-11.07,16.55-2.73,6.3-4.12,13.19-4.12,20.47s1.38,13.96,4.11,20.26c2.73,6.29,6.45,11.83,11.08,16.46,4.62,4.62,10.15,8.34,16.45,11.07,6.3,2.74,13.12,4.12,20.27,4.12,9.08,0,17.69-1.95,25.58-5.78,7.92-3.85,15.12-10.48,21.39-19.69.26-.38,1.9-2.94,1.9-2.94l3.74,2.5c.67.45,1.57-.09,1.52-.89l-2.21-29.2c-.05-.64-.69-1.06-1.3-.85l-26.19,8.92c-.74.25-.9,1.24-.27,1.71l3.87,2.89c-2.82,4.03-6.15,7.41-9.91,10.02-3.76,2.62-7.78,4.48-11.93,5.56-1.94.51-3.89.74-5.84.69-.33.01-.64.05-.97.05-10.63,0-19.71-6.57-23.46-15.85-.47-.99-.87-2.11-1.2-3.39-.26-1.04-.4-2.15-.48-3.28-.1-.92-.17-1.86-.17-2.81,0-10.08,5.91-18.75,14.44-22.82.03-.01.08-.03.11-.05,2.4-1.13,5-1.9,7.74-2.23.08,0,.16-.04.24-.06.05,0,.1,0,.15,0,.27-.03.55-.03.82-.05.68-.05,1.36-.11,2.02-.11.45,0,.86.06,1.3.09.49.02.99.05,1.47.12.43.05.85.11,1.26.19,2.7.46,5.25,1.34,7.58,2.57l-15.84,14.88-.26.24c-.36.33-.52.83-.41,1.31.49,2.13,1.91,7.16,5.7,10.54,3.92,3.51,8.14,4.85,9.79,5.26.44.12.91,0,1.24-.3l.45-.4,12.72-11.64h0l23.5-20.84c.35-.31.42-.81.17-1.21-6.27-9.91-13.69-17.03-22.02-21.16-8.32-4.12-17.13-6.21-26.21-6.22-7.14,0-13.96,1.38-20.27,4.12"/>
      <path class="cls-4" d="m37.81,6.45c-6.34,2.74-11.92,6.53-16.58,11.26-4.66,4.73-8.41,10.34-11.16,16.68-2.75,6.35-4.15,13.29-4.15,20.62,0,7.2,1.39,14.07,4.14,20.42,2.75,6.34,6.5,11.92,11.16,16.58,4.65,4.66,10.23,8.41,16.57,11.16,6.35,2.76,13.22,4.15,20.41,4.15,9.16,0,17.83-1.96,25.78-5.83,7.98-3.88,15.23-10.55,21.56-19.83.26-.38,1.91-2.95,1.91-2.95l3.76,2.51c.68.45,1.59-.08,1.53-.9l-2.23-29.42c-.05-.64-.69-1.07-1.3-.86l-26.39,8.99c-.75.26-.91,1.25-.27,1.72l3.9,2.92c-2.84,4.06-6.2,7.45-9.99,10.09-3.79,2.64-7.83,4.52-12.02,5.6-1.95.51-3.92.75-5.88.7-.33.01-.65.05-.98.05-10.71,0-19.86-6.61-23.64-15.97-.47-1-.88-2.13-1.21-3.41-.27-1.05-.41-2.16-.49-3.31-.1-.93-.16-1.87-.16-2.83,0-10.16,5.95-18.9,14.55-23,.04-.02.07-.04.11-.05,2.42-1.14,5.03-1.92,7.79-2.25.08-.01.16-.04.25-.05.05,0,.1,0,.14,0,.27-.03.55-.03.83-.05.68-.05,1.37-.12,2.03-.12.45,0,.87.07,1.31.1.5.03,1,.06,1.48.11.43.05.85.11,1.27.19,2.72.46,5.28,1.35,7.63,2.59l-15.96,14.99-.26.24c-.36.34-.52.84-.41,1.32.49,2.15,1.93,7.21,5.74,10.62,3.95,3.54,8.2,4.88,9.87,5.3.44.11.91,0,1.25-.31l.46-.41,12.81-11.73h0s23.68-20.99,23.68-20.99c.35-.31.42-.82.17-1.22-6.33-9.98-13.79-17.16-22.19-21.33-8.38-4.15-17.26-6.26-26.41-6.26-7.2,0-14.06,1.39-20.42,4.15"/>
      <path class="cls-6" d="m37.81,6.45c-6.34,2.74-11.92,6.53-16.58,11.26-4.66,4.73-8.41,10.34-11.16,16.68-2.75,6.35-4.15,13.29-4.15,20.62,0,7.2,1.39,14.07,4.14,20.42,2.75,6.34,6.5,11.92,11.16,16.58,4.65,4.66,10.23,8.41,16.57,11.16,6.35,2.76,13.22,4.15,20.41,4.15,9.16,0,17.83-1.96,25.78-5.83,7.98-3.88,15.23-10.55,21.56-19.83.26-.38,1.91-2.95,1.91-2.95l3.76,2.51c.68.45,1.59-.08,1.53-.9l-2.23-29.42c-.05-.64-.69-1.07-1.3-.86l-26.39,8.99c-.75.26-.91,1.25-.27,1.72l3.9,2.92c-2.84,4.06-6.2,7.45-9.99,10.09-3.79,2.64-7.83,4.52-12.02,5.6-1.95.51-3.92.75-5.88.7-.33.01-.65.05-.98.05-10.71,0-19.86-6.61-23.64-15.97-.47-1-.88-2.13-1.21-3.41-.27-1.05-.41-2.16-.49-3.31-.1-.93-.16-1.87-.16-2.83,0-10.16,5.95-18.9,14.55-23,.04-.02.07-.04.11-.05,2.42-1.14,5.03-1.92,7.79-2.25.08-.01.16-.04.25-.05.05,0,.1,0,.14,0,.27-.03.55-.03.83-.05.68-.05,1.37-.12,2.03-.12.45,0,.87.07,1.31.1.5.03,1,.06,1.48.11.43.05.85.11,1.27.19,2.72.46,5.28,1.35,7.63,2.59l-15.96,14.99-.26.24c-.36.34-.52.84-.41,1.32.49,2.15,1.93,7.21,5.74,10.62,3.95,3.54,8.2,4.88,9.87,5.3.44.11.91,0,1.25-.31l.46-.41,12.81-11.73h0s23.68-20.99,23.68-20.99c.35-.31.42-.82.17-1.22-6.33-9.98-13.79-17.16-22.19-21.33-8.38-4.15-17.26-6.26-26.41-6.26-7.2,0-14.06,1.39-20.42,4.15"/>
      <path class="cls-2" d="m50.81,3.14c-3.42.53-6.78,1.39-10.03,2.57-7.17,2.6-13.77,6.75-19.23,12.06-5.54,5.38-9.73,12.14-12.36,19.39-2.2,6.07-3.31,12.55-3.16,19.01.17,7.92,2.22,15.78,5.82,22.83,8.26,16.16,23.66,26.17,41.68,27.78,15.06,1.35,29.51-2.88,40.98-12.81.86-.74,13.98-14.62,12.82-15.39l3.76,2.51c2.3.1,1.48-1.52,1.48-1.52,0-.21-.03-.43-.05-.65-.36-4.68-.71-9.35-1.06-14.03-.36-4.76-.31-9.47-1.08-14.17-.26-1.59-1.21,1.06-1.32,1.37-.41,1.17-.84,2.33-1.3,3.48-.92,2.3-1.93,4.56-3.06,6.76-2.25,4.41-4.93,8.59-8.08,12.41-3.74,4.53-8.12,8.53-13.06,11.71-7.06,4.55-14.37,6.46-22.79,6.14-9.62-.37-19.43-2.97-26.91-9.04-6.17-5-10.41-12.12-12.78-19.7-2.06-6.58-2.77-13.69-1.16-20.39,1.39-5.81,4.59-11.17,8.41-15.73,3.66-4.37,8.14-8.06,13.16-10.77,0,0,35.91-19.86,65.22,12.8l-2.41-3.6c-1.8-2.34-3.31-4.53-5.3-6.75-1.07-1.19-2.2-2.33-3.39-3.4-5.8-5.22-12.83-8.99-20.3-11.2-5.21-1.54-10.65-2.34-16.08-2.34-2.81,0-5.62.21-8.39.64"/>
      <path class="cls-7" d="m1.74,25.67l.03-.03c2.81-5.09,6.47-7.41,9.7-9.48,4.87-3.12,8.41-5.38,6.65-15.19l-.17-.98.78.62c9.28,7.65,13.68,18,11.78,27.69-1.73,8.7-8.19,15.39-17.75,18.34-.47.15-1.01.31-1.49.43l-.2.04-.13-.1c-.33-.25-.65-.5-.97-.74C2.72,40.76-3.02,36.4,1.74,25.67Z"/>
      <path class="cls-3" d="m21.1,10.15c.11.52.83,4.01.67,5.92-.1.79-.16,1.74-.46,2.64-.18.48-.41.91-.71,1.35-.28.43-.64.84-1.06,1.24-1.68,1.57-3.68,3.26-5.61,5.38-.96,1.09-1.92,2.26-2.73,3.58-.43.67-.8,1.39-1.15,2.15-.34.71-.63,1.49-.86,2.33-.21.81-.37,1.67-.45,2.55-.06.85-.03,1.75.06,2.67.1.91.28,1.76.46,2.64.26.87.52,1.73.86,2.58.15.4.31.8.47,1.19C2.85,40.48-3.07,36.44,1.72,25.66,8.7,13.11,21.11,17.42,18.13.75c0,0,2.4,6.95,2.98,9.41Z"/>
    </g>
  </g>
</svg>